<svg width="68" height="68" viewBox="0 0 68 68" fill="none" xmlns="http://www.w3.org/2000/svg">
<path d="M31.706 61.432C31.7278 60.8188 31.626 60.2076 31.4065 59.6347C31.1869 59.0618 30.8542 58.539 30.4282 58.0975C30.0022 57.6561 29.4917 57.3049 28.927 57.0651C28.3623 56.8253 27.755 56.7017 27.1415 56.7017C26.528 56.7017 25.9208 56.8253 25.3561 57.0651C24.7914 57.3049 24.2808 57.6561 23.8548 58.0975C23.4288 58.539 23.0961 59.0618 22.8766 59.6347C22.6571 60.2076 22.5552 60.8188 22.5771 61.432C22.6193 62.6143 23.1187 63.7342 23.9701 64.5557C24.8215 65.3772 25.9584 65.8363 27.1415 65.8363C28.3246 65.8363 29.4616 65.3772 30.313 64.5557C31.1644 63.7342 31.6637 62.6143 31.706 61.432ZM56.8757 61.432C56.8814 60.5217 56.6168 59.6302 56.1152 58.8705C55.6137 58.1108 54.8978 57.5171 54.0585 57.1647C53.2191 56.8124 52.294 56.7172 51.4005 56.8913C50.507 57.0653 49.6853 57.5008 49.0395 58.1424C48.3938 58.7841 47.9531 59.603 47.7734 60.4954C47.5937 61.3878 47.683 62.3135 48.03 63.1551C48.377 63.9966 48.9661 64.7162 49.7226 65.2226C50.4791 65.7289 51.3689 65.9993 52.2793 65.9993C52.8815 66.0031 53.4785 65.8878 54.036 65.66C54.5935 65.4322 55.1005 65.0964 55.5277 64.6719C55.9549 64.2474 56.2939 63.7426 56.5252 63.1866C56.7566 62.6305 56.8757 62.0342 56.8757 61.432Z" stroke="var(--primary-color)" stroke-width="3" stroke-linecap="round" stroke-linejoin="round"/>
<path d="M59.1526 50.0238H19.9784C19.4287 50.0219 18.8983 49.8216 18.4846 49.4598C18.0708 49.0979 17.8017 48.5988 17.7267 48.0543L11.4721 3.96948C11.3966 3.42572 11.1277 2.92737 10.7147 2.56568C10.3018 2.20399 9.77231 2.00317 9.22335 2H2" stroke="var(--primary-color)" stroke-width="3" stroke-linecap="round" stroke-linejoin="round"/>
<path d="M66.0059 15.7241L61.7848 38.9855C61.6892 39.5127 61.4113 39.9895 60.9997 40.3325C60.5881 40.6756 60.0689 40.8629 59.5331 40.8618H16.6992" stroke="var(--primary-color)" stroke-width="3" stroke-linecap="round" stroke-linejoin="round"/>
</svg>
