<svg width="64" height="58" viewBox="0 0 64 58" fill="none" xmlns="http://www.w3.org/2000/svg">
<path d="M20.1853 0.101428C20.3723 0.0292445 20.5716 -0.00502081 20.7718 0.000593473C20.9719 0.00620775 21.169 0.0515914 21.3517 0.134147C21.5345 0.216702 21.6993 0.334808 21.8367 0.481705C21.9742 0.628601 22.0815 0.801404 22.1527 0.990223L24.657 7.59905C24.7285 7.7876 24.7625 7.98852 24.757 8.19032C24.7515 8.39212 24.7067 8.59085 24.6251 8.77517C24.5435 8.95949 24.4267 9.12579 24.2814 9.26458C24.1361 9.40336 23.9651 9.51191 23.7782 9.58402C23.5913 9.65614 23.3922 9.69041 23.1922 9.68488C22.9922 9.67935 22.7952 9.63412 22.6125 9.55179C22.4298 9.46945 22.265 9.35162 22.1274 9.20501C21.9899 9.0584 21.8823 8.8859 21.8108 8.69734L19.3065 2.0864C19.235 1.89773 19.201 1.69667 19.2066 1.49473C19.2121 1.2928 19.2571 1.09396 19.3389 0.909582C19.4208 0.725208 19.5378 0.558926 19.6834 0.420253C19.829 0.281579 20.0003 0.173237 20.1874 0.101428H20.1853ZM7.10797 4.99403C6.96653 4.85133 6.79862 4.73813 6.61383 4.6609C6.42903 4.58367 6.23097 4.54392 6.03095 4.54392C5.83093 4.54392 5.63287 4.58367 5.44807 4.6609C5.26327 4.73813 5.09537 4.85133 4.95393 4.99403C4.66829 5.28223 4.50781 5.67311 4.50781 6.08069C4.50781 6.48827 4.66829 6.87915 4.95393 7.16735L12.3158 14.5951C12.6015 14.8833 12.9889 15.0452 13.3929 15.0452C13.7968 15.0452 14.1842 14.8833 14.4699 14.5951C14.7555 14.3069 14.916 13.9161 14.916 13.5085C14.916 13.1009 14.7555 12.71 14.4699 12.4218L7.10797 4.99403Z" fill="#C61B1A"/>
<path fill-rule="evenodd" clip-rule="evenodd" d="M23.343 14.8141C27.6259 13.7073 32.1311 15.1505 35.0675 18.5301L38.5618 22.1636L38.6142 22.2228L39.1847 22.8809L39.8203 22.172L43.2579 18.5385C46.1943 15.1527 50.7037 13.7094 54.9866 14.8183C59.28 15.9272 62.6002 19.4019 63.6531 23.8121C64.7019 28.2052 63.349 32.8524 60.1022 35.9039L40.4579 56.6636C40.3165 56.8132 40.1467 56.9324 39.9586 57.0142C39.7705 57.096 39.568 57.1387 39.3632 57.1397C39.1583 57.1407 38.9554 57.1 38.7665 57.02C38.5777 56.94 38.4067 56.8224 38.264 56.6742L18.2358 35.9081C14.9848 32.8545 13.6278 28.2052 14.6765 23.8121C15.7315 19.3998 19.0538 15.9251 23.343 14.8141ZM24.1002 17.7936C27.2589 16.9768 30.6042 18.037 32.7981 20.5807L32.8527 20.6441L36.3448 24.2755L38.0165 26.2055C38.1579 26.3692 38.332 26.5009 38.5275 26.5917C38.723 26.6826 38.9354 26.7306 39.1507 26.7326C39.3659 26.7346 39.5791 26.6906 39.7762 26.6033C39.9734 26.5161 40.1499 26.3877 40.2943 26.2266L42.0414 24.2797L45.4854 20.6314C45.5011 20.6149 45.5165 20.5979 45.5315 20.5807C47.7254 18.037 51.0708 16.9768 54.2295 17.7936C57.3903 18.6105 59.8925 21.1901 60.6895 24.5316C61.4886 27.8772 60.442 31.3964 57.9943 33.6777C57.9712 33.6995 57.9488 33.7221 57.9272 33.7454L39.3441 53.3835L20.3919 33.7348C20.3729 33.7152 20.3533 33.6962 20.3332 33.6777C17.8876 31.3964 16.841 27.8794 17.6401 24.5316C18.4371 21.188 20.9373 18.6105 24.1002 17.7936Z" fill="#C61B1A"/>
<path d="M2.0679 19.4755C1.69048 19.3298 1.27116 19.3414 0.902209 19.5077C0.533256 19.674 0.244884 19.9813 0.100532 20.3621C-0.0438196 20.7429 -0.0323263 21.166 0.132484 21.5383C0.297294 21.9105 0.60192 22.2015 0.979348 22.3471L7.53166 24.8738C7.71855 24.9459 7.91768 24.9802 8.11769 24.9747C8.3177 24.9691 8.51467 24.9239 8.69736 24.8416C8.88004 24.7593 9.04487 24.6414 9.18242 24.4948C9.31997 24.3482 9.42756 24.1757 9.49903 23.9871C9.57051 23.7986 9.60448 23.5977 9.59899 23.3959C9.59351 23.1941 9.54869 22.9953 9.46708 22.811C9.38548 22.6267 9.26869 22.4604 9.12338 22.3216C8.97808 22.1828 8.8071 22.0743 8.62022 22.0022L2.0679 19.4755Z" fill="#C61B1A"/>
</svg>
