<svg width="100" height="100" viewBox="0 0 100 100" fill="none" xmlns="http://www.w3.org/2000/svg">
<path d="M6.77197 62.7475C6.93134 62.9228 7.09072 63.0503 7.26603 63.1618C5.60854 64.0065 3.91919 64.2934 2.34139 62.7475C-0.479518 59.9584 0.636094 57.791 1.64015 54.731C2.05452 53.4401 2.46889 51.9579 2.50076 50.2048V49.886C2.45295 43.8458 -0.240458 40.1643 2.73982 30.2831C3.60044 26.1713 -1.86607 19.9238 2.0067 14.6805C3.82356 12.2102 5.60854 12.5449 7.45727 13.5648C7.12259 13.8358 6.88353 14.3458 6.42135 14.6805C-0.320146 19.366 8.01508 26.1713 7.15447 30.2831C4.19012 40.1643 6.86759 43.8458 6.9154 49.886V50.2048C6.88353 51.9579 6.46916 53.4401 6.05479 54.731C5.05074 57.775 3.93512 59.9584 6.75603 62.7475H6.77197Z" fill="#E2D6E2"/>
<path d="M44.9738 85.9363C45.1331 86.1116 45.2925 86.2391 45.4678 86.3506C43.8103 87.1953 42.121 87.4822 40.5432 85.9363C37.7223 83.1472 38.8379 80.9798 39.8419 77.9198C40.2563 76.6289 40.6707 75.1467 40.7025 73.3936V73.0748C40.6547 67.0346 37.9613 63.3531 40.9416 53.4719C41.8022 49.3601 36.3357 43.1127 40.2085 37.8693C42.0253 35.399 43.8103 35.7337 45.6591 36.7537C45.3244 37.0246 45.0853 37.5346 44.6231 37.8693C37.8816 42.5548 46.2169 49.3601 45.3562 53.4719C42.3919 63.3531 45.0694 67.0346 45.1172 73.0748V73.3936C45.0853 75.1467 44.6709 76.6289 44.2566 77.9198C43.2525 80.9638 42.1369 83.1472 44.9578 85.9363H44.9738Z" fill="#E2D6E2"/>
<path d="M4.82762 64.405C3.85544 64.405 2.8992 64.0543 1.9589 63.13C-0.86201 60.3569 -0.0651449 58.046 0.843283 55.3685L1.11422 54.5557C1.49671 53.3444 1.91109 51.9101 1.94296 50.1889V49.8701C1.94296 48.0373 1.67202 46.4276 1.38515 44.7383C0.763597 40.9452 0.126104 37.0406 2.19796 30.1078C2.48483 28.7053 1.89515 26.8725 1.27359 24.9122C0.20579 21.5654 -1.00545 17.7883 1.54453 14.3298C4.23794 10.6961 7.02697 12.5449 9.49726 14.1864C10.9794 15.1745 12.5094 16.1945 14.0713 16.2105C15.3622 15.8439 32.1761 11.3177 47.0456 15.9236C47.7947 16.067 49.2131 15.318 50.7271 14.537C53.5162 13.0867 56.9905 11.2699 59.9708 13.1186C63.5089 15.318 62.0745 20.7526 61.0386 24.721C60.672 26.1075 60.3692 27.3028 60.3055 28.0997C60.2577 28.9603 60.4648 29.8847 60.7358 31.0481C61.1342 32.7375 61.6123 34.8253 61.6761 38.0127C61.6761 38.1402 61.6761 38.2837 61.6283 38.3634C61.5008 38.6343 61.1661 38.7618 60.8952 38.6183C60.672 38.5227 60.5605 38.2837 60.5764 38.0605C60.5764 38.0605 60.5764 38.0287 60.5764 38.0127C60.5127 34.9368 60.0505 32.8968 59.668 31.2712C59.3811 30.0122 59.1421 29.0241 59.2058 28.0041C59.2696 27.0797 59.5883 25.8366 59.9708 24.4022C60.927 20.7685 62.2339 15.7801 59.397 14.0111C56.9427 12.4971 53.9146 14.0749 51.2531 15.4614C49.484 16.3858 47.9859 17.1667 46.7906 16.9436C31.6502 12.2421 14.5016 17.1826 14.3263 17.2304C14.2625 17.2464 14.1828 17.2464 14.1191 17.2464C12.2066 17.2464 10.5332 16.1308 8.89164 15.047C6.08667 13.1824 4.41325 12.2739 2.43702 14.9355C0.221727 17.9317 1.28953 21.2785 2.32546 24.5297C2.99482 26.6175 3.61638 28.6097 3.26576 30.3309C1.24172 37.0565 1.86327 40.8336 2.46889 44.4992C2.73983 46.1567 3.0267 47.8779 3.04264 49.8064V50.141C3.01076 51.926 2.59639 53.456 2.16608 54.8426L1.89515 55.6713C1.00266 58.285 0.412976 60.0063 2.73983 62.3012C4.68418 64.2137 6.72416 63.0025 9.59288 60.9466C11.4257 59.6238 13.1628 58.3806 14.7088 59.0659C25.4346 61.839 33.6901 61.0103 38.9495 60.1497C39.2682 60.1019 39.5391 60.3091 39.5869 60.6119C39.6348 60.9147 39.4276 61.2016 39.1248 61.2494C33.7698 62.1259 25.3708 62.9706 14.3422 60.1178C13.2903 59.6556 11.8082 60.7234 10.2304 61.855C8.60477 63.0184 6.72416 64.3731 4.82762 64.3731V64.405Z" fill="#1C1D1D"/>
<path d="M25.7852 54.8585C17.3703 54.8585 12.876 50.7785 12.621 50.5554C12.3979 50.3482 12.3819 49.9976 12.5891 49.7745C12.7963 49.5514 13.1469 49.5354 13.37 49.7426C13.4497 49.8223 21.6734 57.2013 36.6067 51.6391C36.8935 51.5435 37.2123 51.671 37.3238 51.9579C37.4354 52.2448 37.292 52.5635 37.0051 52.6751C32.718 54.2688 28.9727 54.8585 25.7852 54.8585Z" fill="#1C1D1D"/>
<path d="M45.7865 27.4303C45.675 27.4303 45.5634 27.3985 45.4678 27.3188C39.1566 22.681 32.2876 25.9003 32.2239 25.9322C31.9529 26.0757 31.6183 25.9322 31.4908 25.6772C31.3633 25.4063 31.4748 25.0716 31.7458 24.9441C31.8254 24.9122 39.2682 21.406 46.1212 26.4422C46.3603 26.6175 46.424 26.9681 46.2328 27.2072C46.1212 27.3506 45.9619 27.4303 45.7865 27.4303Z" fill="#1C1D1D"/>
<path d="M99.1129 43.3836C98.7941 42.6664 98.316 42.0767 97.567 41.6305C93.2001 39.0327 87.383 44.8658 84.7852 44.3717C69.3738 39.7818 52.0499 44.6745 52.0499 44.6745C47.4918 44.7064 43.7466 37.6462 39.8897 42.6664C39.3001 43.4474 38.9176 44.2283 38.7263 45.0251C38.0729 42.5867 37.8657 40.0846 39.6666 37.7577C43.5394 32.7375 47.2687 39.7977 51.8268 39.7658C51.8268 39.7658 69.1348 34.889 84.5621 39.463C87.1758 39.9571 92.9929 34.124 97.3438 36.7218C99.4954 37.9968 99.591 40.6424 99.1129 43.3677V43.3836Z" fill="#E2D6E2"/>
<path d="M95.9733 87.7213C93.9173 87.7213 91.4311 86.3666 89.2796 85.1872C87.7337 84.3426 86.2834 83.5457 85.1996 83.3226C84.2115 83.1154 82.4265 83.4501 80.1634 83.8804C74.5216 84.9482 65.0708 86.7332 52.0022 83.3704C50.9343 82.9082 49.4522 83.976 47.8903 85.1076C45.436 86.8607 42.3919 89.06 39.6188 86.3666C36.7979 83.5935 37.5948 81.2826 38.5032 78.6051L38.7742 77.7923C39.1567 76.5811 39.571 75.1308 39.6029 73.4255V73.1067C39.6029 71.2739 39.332 69.6802 39.0451 67.9909C38.4235 64.1978 37.7701 60.2772 39.8579 53.3604C40.1448 51.9579 39.5551 50.1251 38.9335 48.1648C37.8657 44.818 36.6545 41.0408 39.2045 37.5824C41.8979 33.9328 44.6869 35.7974 47.1572 37.439C48.6394 38.4271 50.1694 39.4311 51.7312 39.4471C53.0221 39.0805 69.836 34.5543 84.7056 39.1602C85.4546 39.3196 86.873 38.5546 88.403 37.7737C91.1921 36.3234 94.6505 34.5224 97.6307 36.3712C101.169 38.5546 99.7345 43.9892 98.6986 47.9576C98.332 49.3442 98.0132 50.5554 97.9654 51.3682C97.9176 52.2288 98.1248 53.1373 98.3957 54.3007C99.1289 57.4403 100.213 62.1737 98.1407 72.4214C98.1407 72.6764 98.1407 73.027 98.2045 73.3617C98.332 74.3977 98.6667 75.5611 99.0173 76.7883L99.2882 77.7126C99.9735 80.3263 100.579 83.3226 99.0173 85.9841C98.2523 87.291 97.1845 87.7691 95.9414 87.7691L95.9733 87.7213ZM84.4665 82.1591C84.8171 82.1591 85.1359 82.191 85.4227 82.2388C86.6659 82.5098 88.1958 83.3385 89.8055 84.2151C93.7739 86.3825 96.6904 87.7372 98.077 85.3785C99.4157 83.0835 98.8898 80.4538 98.2364 77.9517L97.9814 77.0433C97.6148 75.7842 97.2642 74.5889 97.1367 73.4733C97.0729 73.0908 97.0411 72.6605 97.0729 72.2461C99.1129 62.1419 98.0451 57.5519 97.3279 54.5238C97.0411 53.2648 96.802 52.2766 96.8658 51.2726C96.9136 50.3482 97.2482 49.1051 97.6307 47.6548C98.587 44.0211 99.8938 39.0487 97.0411 37.2796C94.6027 35.7656 91.5746 37.3434 88.913 38.7299C87.144 39.6543 85.6299 40.4352 84.4346 40.2121C69.2942 35.5106 52.1456 40.4671 51.9703 40.5149C51.9065 40.5308 51.8428 40.5468 51.779 40.5308C49.8665 40.5308 48.1931 39.4152 46.5516 38.3315C43.7466 36.4668 42.0573 35.5424 40.097 38.2199C37.8817 41.2161 38.9495 44.563 39.9854 47.8142C40.6548 49.902 41.2923 51.8941 40.9257 53.6154C38.9017 60.3409 39.5392 64.1181 40.1288 67.7996C40.3998 69.4571 40.6866 71.1783 40.7026 73.0908V73.4255C40.6707 75.2902 40.2245 76.8361 39.826 78.127L39.5392 78.9717C38.6467 81.5695 38.057 83.2907 40.3838 85.5857C42.3282 87.4982 44.3522 86.2869 47.2369 84.231C49.0697 82.9082 50.8069 81.6651 52.3528 82.3504C65.1026 85.6335 74.3941 83.8644 79.9403 82.8285C81.8209 82.4779 83.319 82.191 84.4506 82.191L84.4665 82.1591Z" fill="#1C1D1D"/>
<path d="M63.4292 78.0473C55.0143 78.0473 50.52 73.9673 50.265 73.7442C50.0418 73.537 50.0259 73.1864 50.2331 72.9633C50.4403 72.7401 50.7909 72.7242 51.014 72.9314C51.0937 73.0111 59.3174 80.3901 74.2506 74.8279C74.5375 74.7323 74.8563 74.8598 74.9678 75.1467C75.0794 75.4336 74.936 75.7523 74.6491 75.8639C70.3619 77.4576 66.6167 78.0473 63.4292 78.0473Z" fill="#1C1D1D"/>
<path d="M83.4465 50.6192C83.3349 50.6192 83.2234 50.5873 83.1277 50.5076C76.8166 45.8858 69.9635 49.0892 69.8838 49.1211C69.6129 49.2645 69.2782 49.1211 69.1507 48.8661C69.0232 48.5951 69.1348 48.2604 69.4057 48.1329C69.4854 48.1011 76.9281 44.5949 83.7812 49.6311C84.0202 49.8064 84.084 50.157 83.8927 50.396C83.7812 50.5395 83.6218 50.6192 83.4465 50.6192Z" fill="#1C1D1D"/>
<path d="M61.1183 38.7139C61.0386 38.7139 60.9589 38.698 60.8792 38.6661C60.6561 38.5705 60.5446 38.3314 60.5605 38.1083C60.5605 38.1083 60.5605 38.0764 60.5605 38.0605C60.4967 34.9846 60.0346 32.9446 59.6521 31.319C59.3652 30.06 59.1261 29.0718 59.1899 28.0519C59.2536 27.1275 59.5724 25.8844 59.9549 24.45C60.9111 20.8163 62.218 15.8279 59.3811 14.0589C59.2536 13.9792 59.1102 13.8995 58.9508 13.8358C56.5762 12.7201 53.7234 14.2182 51.2053 15.5251C50.6156 15.8439 50.0418 16.1307 49.5159 16.3857C48.3047 16.9435 47.46 17.1348 46.7747 16.9913C42.9657 15.812 38.7742 15.1586 34.2639 14.9992C26.614 14.7282 19.8087 15.9873 16.4459 16.7523C16.3981 16.7523 16.3503 16.7523 16.3025 16.7523C15.0913 17.0392 14.3263 17.2623 14.3103 17.2623C14.2466 17.2782 14.1669 17.2942 14.1032 17.2782C12.2066 17.2782 10.5332 16.1626 8.92352 15.0948C8.33384 14.7123 7.7601 14.3298 7.18635 14.0111C6.91542 13.8676 6.81979 13.5329 6.96323 13.262C7.10667 12.9911 7.44135 12.8954 7.71228 13.0389C8.30197 13.3736 8.90759 13.772 9.52914 14.1704C11.0113 15.1426 12.5254 16.1626 14.0872 16.1785C14.3263 16.1148 15.0594 15.9076 16.1909 15.6526C19.6334 14.8717 26.5183 13.5967 34.3117 13.8676C38.9176 14.027 43.2207 14.7123 47.0616 15.8917C47.5875 16.0032 48.4481 15.6207 49.0697 15.3498C49.5797 15.1107 50.1375 14.8239 50.7112 14.5211C53.3249 13.1504 56.5762 11.4611 59.4289 12.7998C59.6043 12.8795 59.7955 12.9751 59.9708 13.0867C63.5248 15.286 62.0905 20.7366 61.0545 24.705C60.688 26.0916 60.3852 27.2869 60.3214 28.0837C60.2736 28.9443 60.4808 29.8687 60.7517 31.0321C61.1502 32.7215 61.6283 34.8093 61.692 37.9968C61.692 38.1243 61.692 38.2677 61.6442 38.3474C61.5486 38.5386 61.3574 38.6661 61.1502 38.6661L61.1183 38.7139Z" fill="#1C1D1D"/>
</svg>
