<svg width="64" height="48" viewBox="0 0 64 48" fill="none" xmlns="http://www.w3.org/2000/svg">
<path d="M62.6627 7.51038C61.9266 4.55413 59.7579 2.22588 57.0044 1.43575C52.0134 0 32 0 32 0C32 0 11.9867 0 6.99562 1.43575C4.24206 2.226 2.0734 4.55413 1.33734 7.51038C0 12.8688 0 24.0485 0 24.0485C0 24.0485 0 35.2282 1.33734 40.5866C2.0734 43.5429 4.24206 45.7741 6.99562 46.5643C11.9867 48 32 48 32 48C32 48 52.0133 48 57.0044 46.5643C59.7579 45.7741 61.9266 43.5429 62.6627 40.5866C64 35.2282 64 24.0485 64 24.0485C64 24.0485 64 12.8688 62.6627 7.51038ZM25.4545 34.1989V13.8981L42.1817 24.0488L25.4545 34.1989Z" fill="white"/>
</svg>
