<svg width="256" height="256" viewBox="0 0 256 256" fill="none" xmlns="http://www.w3.org/2000/svg">
<path d="M79.9352 0.448227C80.6761 0.129236 81.4657 -0.0221877 82.2588 0.00262265C83.0518 0.027433 83.8327 0.22799 84.5567 0.592815C85.2808 0.95764 85.9338 1.47957 86.4784 2.12873C87.023 2.77789 87.4485 3.54153 87.7305 4.37595L97.6533 33.5814C97.9365 34.4146 98.0711 35.3025 98.0493 36.1943C98.0276 37.0861 97.85 37.9643 97.5267 38.7789C97.2033 39.5934 96.7406 40.3283 96.1648 40.9416C95.5891 41.5549 94.9116 42.0346 94.1711 42.3533C93.4307 42.672 92.6416 42.8234 91.8491 42.799C91.0566 42.7746 90.2762 42.5747 89.5523 42.2108C88.8285 41.847 88.1754 41.3263 87.6304 40.6784C87.0853 40.0305 86.6591 39.2682 86.3759 38.4349L76.4531 9.22014C76.1696 8.38636 76.035 7.49785 76.0571 6.60547C76.0791 5.71309 76.2574 4.83436 76.5816 4.01959C76.9058 3.20481 77.3696 2.46998 77.9465 1.85716C78.5234 1.24434 79.202 0.765562 79.9435 0.448227H79.9352ZM28.119 22.0694C27.5586 21.4388 26.8933 20.9386 26.161 20.5973C25.4288 20.256 24.6441 20.0803 23.8515 20.0803C23.059 20.0803 22.2742 20.256 21.542 20.5973C20.8098 20.9386 20.1445 21.4388 19.584 22.0694C18.4522 23.343 17.8164 25.0704 17.8164 26.8715C17.8164 28.6727 18.4522 30.4 19.584 31.6736L48.754 64.4982C49.8858 65.7718 51.4209 66.4873 53.0215 66.4873C54.6221 66.4873 56.1572 65.7718 57.289 64.4982C58.4208 63.2246 59.0566 61.4972 59.0566 59.6961C59.0566 57.8949 58.4208 56.1676 57.289 54.894L28.119 22.0694Z" fill="var(--primary-color)"/>
<path fill-rule="evenodd" clip-rule="evenodd" d="M94.8952 68.9564C111.865 64.0655 129.716 70.4433 141.351 85.378L155.197 101.435L155.404 101.697L157.665 104.605L160.183 101.472L173.804 85.4154C185.439 70.4527 203.306 64.0748 220.276 68.9751C237.288 73.8754 250.444 89.2309 254.615 108.72C258.771 128.134 253.41 148.671 240.546 162.156L162.709 253.896C162.149 254.557 161.476 255.084 160.731 255.446C159.986 255.807 159.183 255.996 158.372 256C157.56 256.004 156.756 255.824 156.008 255.471C155.259 255.117 154.582 254.598 154.016 253.943L74.6591 162.174C61.7777 148.68 56.4008 128.134 60.5561 108.72C64.7363 89.2216 77.9002 73.8661 94.8952 68.9564ZM97.8953 82.1236C110.411 78.5139 123.666 83.1991 132.359 94.4399L132.575 94.7204L146.412 110.768L153.036 119.297C153.596 120.02 154.286 120.602 155.061 121.004C155.835 121.405 156.677 121.618 157.53 121.626C158.383 121.635 159.227 121.441 160.008 121.055C160.789 120.67 161.489 120.102 162.061 119.39L168.984 110.787L182.63 94.6643C182.692 94.5911 182.753 94.5163 182.812 94.4399C191.505 83.1991 204.761 78.5139 217.276 82.1236C229.8 85.7334 239.715 97.1332 242.873 111.9C246.039 126.685 241.892 142.237 232.194 152.318C232.102 152.414 232.013 152.514 231.928 152.617L158.296 239.401L83.2023 152.57C83.1268 152.484 83.0492 152.399 82.9696 152.318C73.2795 142.237 69.1325 126.694 72.2989 111.9C75.4569 97.1238 85.363 85.7334 97.8953 82.1236Z" fill="var(--primary-color)"/>
<path d="M8.19362 86.0679C6.69815 85.4242 5.03671 85.4755 3.57481 86.2103C2.11291 86.9452 0.970298 88.3034 0.398336 89.9862C-0.173626 91.6691 -0.128086 93.5387 0.524938 95.1837C1.17796 96.8288 2.38498 98.1145 3.88045 98.7582L29.8426 109.924C30.5831 110.243 31.3721 110.394 32.1646 110.37C32.9571 110.345 33.7375 110.146 34.4614 109.782C35.1853 109.418 35.8383 108.897 36.3834 108.249C36.9284 107.601 37.3547 106.839 37.6379 106.006C37.9211 105.172 38.0557 104.285 38.0339 103.393C38.0122 102.501 37.8346 101.623 37.5113 100.808C37.1879 99.9937 36.7252 99.2588 36.1494 98.6455C35.5737 98.0322 34.8962 97.5525 34.1558 97.2338L8.19362 86.0679Z" fill="var(--primary-color)"/>
</svg>
