<svg width="100" height="100" viewBox="0 0 100 100" fill="none" xmlns="http://www.w3.org/2000/svg">
<g clip-path="url(#clip0_1_6965)">
<path d="M58.871 73.4467C58.871 73.4467 58.871 73.5767 58.8277 73.6633C58.1129 73.3167 57.3331 73.1218 56.5967 73.1435C54.9073 73.2084 53.6727 73.9665 53.586 75.8076C51.8749 75.0279 50.597 73.425 50.597 71.8655C50.6403 69.8945 51.8966 69.1364 53.6293 69.0281C56.0769 68.9198 59.0009 71.3674 58.8493 73.4467H58.871Z" fill="#E2D6E2"/>
<path d="M59.6507 38.6395C59.3908 38.5962 59.1309 38.5746 58.9143 38.5746C57.1165 38.6395 55.8386 39.9608 55.4704 41.8668C55.3404 42.6249 55.2321 43.4047 55.0589 44.1627C54.6473 45.9822 53.586 46.5453 51.8316 45.8522C51.3334 45.6573 50.8352 45.4407 50.3371 45.2024C48.5826 44.4876 47.0664 44.8992 45.9618 46.3504C44.8138 47.8016 44.9221 49.3827 45.9618 50.8772C47.1314 52.5667 47.2614 55.729 44.2724 53.8663C43.3193 53.2598 42.6912 52.1335 41.8031 51.3971C41.11 50.8123 40.287 50.2491 39.4206 50.0542C37.3196 49.556 35.4136 50.7473 34.7204 52.74C34.3739 52.5234 34.0273 52.3068 33.6158 52.0685C31.3415 50.7473 30.4102 48.9062 31.0816 46.9352C31.7747 44.8559 33.7024 43.6429 35.8467 44.1411C36.6915 44.3577 37.5145 44.9208 38.2293 45.484C39.0957 46.2421 39.7238 47.3684 40.6769 47.9532C43.6659 49.8376 43.5359 46.6536 42.3663 44.9858C41.3266 43.4913 41.2183 41.8885 42.3663 40.4373C43.4926 39.0078 45.0088 38.5746 46.7416 39.311C47.2397 39.5276 47.7379 39.7442 48.2361 39.9608C49.9688 40.6539 51.0518 40.0907 51.4417 38.2497C51.615 37.4916 51.7233 36.7118 51.8749 35.9537C52.2431 34.026 53.4777 32.7048 55.2971 32.6615C56.5967 32.6182 58.1995 33.3113 59.1742 34.1993C60.4738 35.3906 60.4738 37.0584 59.6507 38.6179V38.6395Z" fill="#E2D6E2"/>
<path d="M69.3109 36.4086C69.0077 36.257 68.6828 36.1704 68.3362 36.1704C67.0583 36.1054 66.1486 36.8851 66.1053 38.1414V38.2714C64.914 37.7299 63.9393 36.4303 64.0043 35.2173C64.0693 33.9611 64.9573 33.1597 66.2352 33.2463C67.8381 33.333 69.2892 34.8275 69.3109 36.4086Z" fill="#E2D6E2"/>
<path d="M38.7058 36.452C38.7058 36.452 38.7058 36.6469 38.7058 36.7336C38.4459 36.6469 38.1643 36.5819 37.8611 36.5819C36.15 36.5819 34.7205 38.423 34.5905 40.654C33.161 40.1991 32.1863 38.5746 32.1863 36.4953C32.1863 34.1127 33.6591 32.0984 35.4785 32.0984C37.298 32.0984 38.7275 34.0044 38.7492 36.4736L38.7058 36.452Z" fill="#E2D6E2"/>
<path d="M95.0859 8.33768L91.2521 11.37L87.4184 7.94781L82.5883 11.565L78.5596 8.14275L73.123 11.37L68.6828 7.53627L63.8527 11.1534L59.4341 8.33768L55.1888 11.37L50.1638 7.73121L45.1171 11.1534L40.4819 7.53627L35.6518 10.352L31.0166 6.9298L26.1865 9.96216L21.9629 6.73487L17.3277 10.1571L12.281 7.12474L8.66386 9.74556L6.45458 12.3664L9.05374 17.0015L6.23798 21.4418L8.8588 26.6834L5.63151 31.102L9.87681 35.9321L6.45458 40.5673L9.66021 45.3974L6.23798 49.8376L9.66021 53.8663L6.04305 59.1079L9.87681 63.938L6.04305 68.5732L9.27033 73.2084L5.63151 78.0385L9.87681 83.0852L6.45458 86.7023L9.27033 90.3195L7.86246 94.7597L1.40788 98.9833L3.83376 92.3338L0.194937 87.1138L4.22363 82.4787L0.411535 77.6269L3.61716 73.2084L0.411535 68.3782L4.0287 63.938L0.606472 59.3029L4.22363 54.6677L0 49.6426L3.61716 45.6139L0.194937 40.3723L4.22363 35.7371L0.411535 30.907L3.83376 26.4668L0.411535 21.8316L4.44023 17.1965L0.411535 12.583L4.0287 7.94781L0.801409 1.0817L7.45092 4.11405L12.4976 0.691824L17.3277 4.91546L22.1578 0.496887L26.5981 4.30899L31.0166 0.496887L35.4569 4.30899L40.6985 0.496887L45.3337 3.91911L50.1638 0.691824L54.9939 4.11405L58.8276 0.691824L63.4628 3.70252L68.4878 0.496887L73.3179 4.52558L77.9531 1.29829L82.7832 3.91911L86.8119 0.886761L92.2485 4.52558L97.9017 1.49323L95.0859 8.33768Z" fill="#E2D6E2"/>
<path d="M99.6561 86.399L96.5804 82.6303L99.6561 78.8615C100.068 78.32 100.068 77.5836 99.6561 77.0637L96.5804 73.2949L99.6561 69.5262C100.068 68.9847 100.068 68.2483 99.6561 67.7284L96.6021 63.9596L99.6561 60.1909C100.068 59.671 100.068 58.9129 99.6561 58.4148L96.5804 54.6243L99.6561 50.8555C100.068 50.3357 100.068 49.5776 99.6561 49.0795L96.5804 45.3107L96.6454 45.2457L96.6021 45.3323L99.6561 41.5636C99.8727 41.3036 99.9593 40.9787 99.9593 40.6538C99.9593 40.329 99.851 40.0041 99.6561 39.7441L96.6021 35.9754L96.862 35.6505L99.6561 32.2282C100.068 31.7084 100.068 30.9503 99.6561 30.4521L96.5804 26.6834L99.6561 22.9146C100.068 22.3731 100.068 21.6367 99.6561 21.1168L98.2699 19.3841L96.6021 17.3264L96.8187 17.0665L99.6561 13.5576C100.068 13.0161 100.068 12.2797 99.6561 11.7599L96.4721 7.83947L99.2446 2.66281C99.5478 2.12132 99.4612 1.42821 99.0063 0.995017C98.7464 0.713442 98.3782 0.583484 98.01 0.583484C97.7717 0.583484 97.5551 0.648462 97.3385 0.756761L92.1402 3.55086L88.1981 0.345227C87.9382 0.128631 87.6133 0.0419922 87.3101 0.0419922C86.9852 0.0419922 86.6603 0.128631 86.4004 0.345227L82.6316 3.4209L78.8628 0.345227C78.6029 0.128631 78.278 0.0419922 77.9531 0.0419922C77.6499 0.0419922 77.325 0.128631 77.0651 0.345227L73.2963 3.4209L69.5275 0.345227C69.2676 0.128631 68.9427 0.0419922 68.6178 0.0419922C68.3146 0.0419922 67.9897 0.128631 67.7298 0.366887L63.961 3.4209L60.1922 0.345227C59.9323 0.128631 59.6291 0.0419922 59.3042 0.0419922C58.9793 0.0419922 58.6544 0.128631 58.4161 0.345227L54.6257 3.4209L50.8569 0.345227C50.6186 0.128631 50.2937 0.0419922 49.9688 0.0419922C49.644 0.0419922 49.3407 0.128631 49.0808 0.345227L45.312 3.4209L41.5432 0.345227C41.2833 0.128631 40.9584 0.0419922 40.6335 0.0419922C40.3303 0.0419922 40.0054 0.128631 39.7455 0.345227L35.9767 3.4209L32.2079 0.345227C31.9697 0.128631 31.6448 0.0419922 31.3199 0.0419922C30.995 0.0419922 30.6701 0.128631 30.4318 0.345227L26.6631 3.4209L22.8943 0.345227C22.6344 0.128631 22.3095 0.0419922 22.0062 0.0419922C21.6813 0.0419922 21.3564 0.128631 21.0965 0.366887L17.3494 3.4209L13.5806 0.345227C13.3207 0.128631 12.9958 0.0419922 12.6926 0.0419922C12.3677 0.0419922 12.0428 0.128631 11.7829 0.345227L7.86248 3.55086L2.68582 0.756761C2.46923 0.648462 2.25263 0.583484 2.01437 0.583484C1.6245 0.583484 1.27794 0.735101 1.01803 0.995017C0.563175 1.44987 0.476535 2.14298 0.77977 2.68447L3.57387 7.86113L0.368236 11.8248C-0.0432978 12.3447 -0.0432978 13.1028 0.368236 13.6009L3.44391 17.3914L0.368236 21.1602C-0.0432978 21.7016 -0.0432978 22.4381 0.368236 22.9579L3.44391 26.7267L0.368236 30.4955C-0.0432978 31.037 -0.0432978 31.7734 0.368236 32.2932L3.44391 36.0403L0.368236 39.8308C-0.0432978 40.3506 -0.0432978 41.087 0.368236 41.6069L3.44391 45.3757L0.368236 49.1444C-0.0432978 49.6859 -0.0432978 50.4224 0.368236 50.9422L3.44391 54.711L0.368236 58.4797C-0.0432978 58.9996 -0.0432978 59.7577 0.368236 60.2558L3.44391 64.0246L0.368236 67.7934C-0.0432978 68.3349 -0.0432978 69.0713 0.368236 69.5911L3.44391 73.3599L0.368236 77.1287C-0.0432978 77.6485 -0.0432978 78.4066 0.368236 78.9048L3.44391 82.6736L0.368236 86.4424C-0.0432978 86.9622 -0.0432978 87.7203 0.368236 88.2184L3.57387 92.1605L0.77977 97.3155C0.476535 97.857 0.584835 98.5501 1.01803 99.005C1.2996 99.2649 1.66782 99.4165 2.01437 99.4165C2.25263 99.4165 2.46922 99.3515 2.70748 99.2432L7.88414 96.4491L11.8479 99.6331C12.0861 99.8497 12.411 99.958 12.7359 99.958C13.0608 99.958 13.364 99.8497 13.6239 99.6331L17.4144 96.5574L21.1832 99.6331C21.4431 99.8497 21.7463 99.958 22.0712 99.958C22.3961 99.958 22.721 99.8497 22.9593 99.6331L26.7497 96.5791L30.5185 99.6331C30.7784 99.8497 31.0816 99.958 31.4065 99.958C31.7314 99.958 32.0563 99.8497 32.2946 99.6331L36.0634 96.5791L39.8321 99.6331C40.092 99.8497 40.4169 99.958 40.7418 99.958C41.0451 99.958 41.37 99.8497 41.6299 99.6331L45.3987 96.5791L49.1674 99.6331C49.4274 99.8497 49.7523 99.958 50.0555 99.958C50.3804 99.958 50.7053 99.8497 50.9652 99.6331L54.734 96.5791L58.5028 99.6331C58.7627 99.8497 59.0659 99.958 59.3908 99.958C59.7157 99.958 60.0406 99.8497 60.2788 99.6331L64.0476 96.5791L67.8164 99.6331C68.0763 99.8497 68.4012 99.958 68.7261 99.958C69.0293 99.958 69.3542 99.8497 69.6142 99.6331L73.3829 96.5791L77.1517 99.6331C77.39 99.8497 77.7149 99.958 78.0398 99.958C78.3647 99.958 78.6896 99.8497 78.9278 99.6331L82.6966 96.5791L86.4654 99.6331C86.7036 99.8497 87.0285 99.958 87.3534 99.958C87.6783 99.958 87.9815 99.8497 88.2415 99.6331L92.1835 96.4491L97.3385 99.2215C97.5551 99.3515 97.7934 99.3948 98.0316 99.3948C98.3998 99.3948 98.7681 99.2649 99.028 98.9833C99.4828 98.5284 99.5695 97.8353 99.2662 97.2938L96.4938 92.3121L99.6994 88.1102C100.111 87.5903 100.089 86.8539 99.6994 86.3557L99.6561 86.399ZM94.7827 92.2255L98.01 98.0086L91.9886 94.7813L87.3101 98.5718L82.6316 94.7813L77.9531 98.5718L73.2746 94.7813L68.5962 98.5718L63.9177 94.7813L59.2392 98.5718L54.5607 94.7813L49.8822 98.5718L45.2037 94.7813L40.5252 98.5718L35.8467 94.7813L31.1683 98.5718L26.4898 94.7813L21.8113 98.5718L17.1328 94.7813L12.4543 98.5718L7.77584 94.7813L7.71086 94.8246L1.7328 98.0303L4.98174 92.0089L1.1913 87.3304L4.98174 82.6519L1.1913 77.9734L4.98174 73.2949L1.1913 68.6165L4.98174 63.938L1.1913 59.2595L4.98174 54.581L1.1913 49.9025L4.98174 45.224L1.1913 40.5455L4.98174 35.8671L1.1913 31.1886L4.98174 26.5101L1.1913 21.8316L4.98174 17.1531L1.1913 12.4746L4.98174 7.79615L1.7328 1.7531L7.73252 5.00205L12.411 1.21161L17.0895 5.00205L17.2628 4.85044L21.768 1.21161L26.4465 5.00205L31.125 1.21161L35.8034 5.00205L40.4819 1.21161L45.1604 5.00205L49.8389 1.21161L54.5174 5.00205L59.1959 1.21161L63.8743 5.00205L68.5528 1.21161L73.2313 5.00205L77.4983 1.53651L77.8881 1.21161H77.9315L82.5883 5.00205L87.2668 1.21161L91.9453 5.00205L97.6851 1.90472L97.9667 1.7531L96.9703 3.57252L94.7394 7.75283L95.0859 8.18602L98.5298 12.4313L94.7394 17.1098L96.9486 19.8173L98.5298 21.7666L94.7394 26.4451L98.5298 31.1236L94.7394 35.8021L98.5298 40.4806L94.7394 45.1591L98.5298 49.8375L94.7394 54.516L98.5298 59.1945L94.7394 63.873L98.5298 68.5515L94.7394 73.23L98.5298 77.9084L94.7394 82.5869L98.5298 87.2654L94.761 92.1822L94.7827 92.2255Z" fill="#1C1D1D"/>
<path d="M23.0676 61.1006C23.0676 61.1006 23.6091 68.7031 30.3669 76.3923C21.9413 68.8764 19.8619 62.6817 19.8619 62.6817L19.9919 60.4291L23.0676 61.1006Z" fill="#E2D6E2"/>
<path d="M52.3514 16.6984L22.851 29.0227L22.7643 29.066L20.6633 29.9324L19.3854 26.8568L51.2684 13.5361L52.3514 16.6984Z" fill="#E2D6E2"/>
<path d="M81.4187 29.4343L51.8316 17.2832L51.7666 17.2399L49.644 16.3735L50.9219 13.2979L81.6569 26.0121L81.4187 29.4343Z" fill="#E2D6E2"/>
<path d="M23.0459 26.7701L23.0675 58.7614V58.8264V61.1007H20.0785L20.0569 26.5535L23.0459 26.7701Z" fill="#E2D6E2"/>
<path d="M51.2251 84.3847C51.2251 84.3847 51.0302 84.3847 50.9435 84.3198C30.4968 75.6559 24.822 61.6421 24.6054 61.0573C24.5837 60.9707 24.5621 60.884 24.5621 60.7974V30.9287C24.5621 30.6471 24.7354 30.3872 24.9953 30.2789L50.7486 19.3625C50.9219 19.2975 51.1168 19.2975 51.2901 19.3625L76.6319 29.6724C76.8918 29.7807 77.0651 30.0407 77.0651 30.3222V60.1909C76.9784 60.7974 75.0941 72.9484 51.5283 84.3198C51.42 84.3631 51.3334 84.3847 51.2251 84.3847ZM25.97 60.6674C26.5548 62.032 32.5545 74.8762 51.2034 82.8902C73.8161 71.8871 75.6355 60.2126 75.6572 60.0826V30.7771L51.0302 20.7703L25.97 31.3836V60.6458V60.6674Z" fill="#1C1D1D"/>
<path d="M51.3117 91.0992C51.3117 91.0992 51.1168 91.0992 51.0302 91.0343C26.3382 80.551 19.2771 63.115 19.2121 62.9417C19.1905 62.8551 19.1688 62.7684 19.1688 62.6818V26.5101C19.1688 26.2286 19.3421 25.9687 19.602 25.8604L50.7919 12.6263C50.9652 12.5613 51.1601 12.5613 51.3334 12.6263L82.0251 25.1023C82.285 25.2106 82.4583 25.4705 82.4583 25.7521V61.9237C82.3717 62.6385 80.0758 77.2804 51.615 91.0126C51.5067 91.0559 51.42 91.0776 51.3117 91.0776V91.0992ZM20.5767 62.5518C21.2265 64.068 28.4608 79.8146 51.2901 89.6047C78.6895 76.284 81.0288 61.9887 81.0504 61.837V26.2286L51.0735 14.0342L20.5983 26.965V62.5302L20.5767 62.5518Z" fill="#1C1D1D"/>
<path d="M41.7815 71.1941C40.157 71.1941 38.5325 70.6959 37.1247 69.6779C33.7674 67.2737 32.8577 62.5519 35.0453 58.9347C36.215 57.007 36.9081 55.8374 36.7565 55.2309C36.6048 54.6028 35.3702 53.888 33.3126 52.6967C30.7134 51.1806 29.6737 48.9929 30.4535 46.697C31.2766 44.2278 33.5725 42.8849 36.0417 43.4481C36.8864 43.643 37.7528 44.1195 38.7058 44.9426C39.139 45.3108 39.4856 45.7223 39.8321 46.1339C40.2437 46.6104 40.6335 47.0869 41.0884 47.3684C41.9548 47.9099 42.3013 47.845 42.3663 47.8016C42.5829 47.5634 42.5179 46.3721 41.8248 45.3974C40.5469 43.578 40.5469 41.6503 41.8248 40.0042C43.1677 38.2714 45.0088 37.7949 47.0448 38.6613L47.6513 38.9212C47.9545 39.0511 48.2361 39.1811 48.5393 39.2894C49.2108 39.5493 49.7089 39.5926 50.0555 39.4194C50.402 39.2461 50.6403 38.7912 50.8136 38.0981C50.9219 37.6216 51.0085 37.1451 51.0951 36.6686L51.2468 35.8239C51.68 33.4846 53.2611 32.0118 55.3621 31.9468C56.77 31.9684 58.5894 32.6182 59.7157 33.6795C61.2319 35.0874 61.4051 37.2317 60.1489 39.3111C59.8456 39.8092 59.5208 40.3074 59.1959 40.7839C58.6544 41.607 58.1345 42.3651 57.723 43.1881C57.3548 43.9246 57.4414 44.1845 57.4414 44.1845C57.7013 44.3578 59.1742 43.9462 59.9973 43.3398C62.1416 41.7803 65.0006 42.0618 66.6468 43.9895C68.2929 45.9173 68.1413 48.7113 66.2786 50.6607C65.9753 50.9856 65.6071 51.2888 65.2389 51.6137C64.5458 52.2202 63.6577 52.9783 63.6577 53.4765C63.6577 54.1696 64.4375 55.1009 65.1523 55.924C65.4122 56.2273 65.6937 56.5521 65.9103 56.8554C67.8381 59.3679 68.2063 61.8804 66.95 64.3496C65.7804 66.6455 63.7444 67.7069 60.907 67.7718C58.6544 67.8801 56.9866 66.299 55.5354 64.6962C54.3657 63.3966 53.586 62.8768 52.9579 62.8551C52.3514 62.8768 51.615 63.5049 50.5753 64.8911C50.2937 65.2593 50.0122 65.6275 49.7522 65.9958C49.1891 66.7755 48.6259 67.5336 47.9978 68.2484C46.3733 70.1544 44.0991 71.1508 41.8031 71.1508L41.7815 71.1941ZM34.937 44.7693C33.5292 44.7693 32.2946 45.679 31.7964 47.1735C31.06 49.3828 32.8794 50.8123 34.0273 51.4838C36.5615 52.9566 37.8178 53.6931 38.121 54.906C38.4242 56.0973 37.7095 57.2886 36.2583 59.6928C34.4605 62.6818 35.197 66.5806 37.9477 68.5516C40.7635 70.5659 44.6189 70.0678 46.8715 67.4036C47.4563 66.7105 48.0195 65.9524 48.561 65.216C48.8425 64.8478 49.1241 64.4579 49.4057 64.0897C50.402 62.7901 51.5067 61.5555 52.8712 61.5122C54.2141 61.4256 55.4487 62.5952 56.575 63.8081C57.853 65.216 59.1742 66.5156 60.842 66.4073C60.842 66.4073 60.8636 66.4073 60.8853 66.4073C63.2029 66.3856 64.7407 65.6059 65.6504 63.7648C66.6468 61.7721 66.3652 59.8877 64.7407 57.7867C64.5241 57.5052 64.2859 57.2236 64.026 56.9204C63.0946 55.8374 62.1416 54.7327 62.1849 53.4981C62.2065 52.3718 63.2462 51.4621 64.2642 50.5957C64.6108 50.2925 64.9357 50.0109 65.2172 49.7294C66.5601 48.3431 66.6901 46.3288 65.5421 44.9859C64.3725 43.6213 62.3365 43.4481 60.7987 44.5744C60.0839 45.0942 57.6364 46.3071 56.4667 45.3324C55.8169 44.7909 55.7953 43.9029 56.4018 42.6466C56.8566 41.7153 57.4198 40.8706 57.9613 40.0475C58.2862 39.571 58.5894 39.1161 58.8926 38.618C59.3258 37.9032 60.1705 36.1271 58.6977 34.7842C57.8096 33.9828 56.4018 33.398 55.3404 33.4413C53.9326 33.4846 52.9146 34.481 52.5897 36.1487L52.438 36.9718C52.3514 37.47 52.2648 37.9682 52.1565 38.4663C51.8966 39.5926 51.42 40.3507 50.6836 40.7406C49.9472 41.1305 49.0375 41.1088 47.9762 40.6756C47.6729 40.5457 47.348 40.4157 47.0448 40.2857L46.46 40.0258C45.0304 39.441 43.8608 39.7443 42.9294 40.9355C42.0414 42.0835 42.0631 43.3181 42.9728 44.6393C43.8825 45.9173 44.2507 47.9099 43.3843 48.8413C42.9295 49.3395 42.0198 49.686 40.3303 48.6247C39.6805 48.2132 39.204 47.65 38.7491 47.1085C38.4242 46.7403 38.121 46.3721 37.7961 46.0905C37.0164 45.4407 36.3233 45.0292 35.7168 44.8993C35.4569 44.8343 35.197 44.8126 34.937 44.8126V44.7693Z" fill="#1C1D1D"/>
<path d="M55.7953 77.0205C54.2141 77.0205 52.568 76.3274 51.3767 75.1361C50.402 74.1614 49.8822 72.9918 49.9038 71.8438C49.9472 69.6995 51.2684 68.4432 53.6293 68.3349C55.1888 68.2916 56.8999 69.028 58.1778 70.3276C59.1742 71.324 59.6724 72.4719 59.6074 73.5333C59.4558 75.5693 58.1345 76.8688 55.9469 77.0421C55.9036 77.0421 55.8603 77.0421 55.8169 77.0421L55.7953 77.0205ZM53.8242 69.7428C53.8242 69.7428 53.7376 69.7428 53.6726 69.7428C51.615 69.8511 51.3334 70.9341 51.3117 71.8655C51.3117 72.6019 51.6799 73.425 52.373 74.1181C53.3044 75.0494 54.5174 75.5476 55.8169 75.5909C57.2681 75.461 58.0479 74.7245 58.1562 73.4033C58.1995 72.7752 57.8313 71.9954 57.1382 71.3023C56.2068 70.3493 54.9072 69.7428 53.8242 69.7428Z" fill="#1C1D1D"/>
<path d="M35.4569 41.4986C34.5038 41.4986 33.6158 41.1304 32.901 40.4156C31.9697 39.4842 31.4498 38.0547 31.4498 36.4735C31.4498 33.6794 33.2259 31.3835 35.4352 31.3618C36.2799 31.3185 37.1896 31.7084 37.9044 32.4015C38.8574 33.3545 39.4206 34.8274 39.4206 36.4519C39.4206 39.4192 37.7961 41.4986 35.4785 41.4986H35.4569ZM35.4569 32.7914C34.049 32.7914 32.8794 34.4808 32.8794 36.4735C32.8794 37.6865 33.2692 38.7478 33.919 39.3976C34.3522 39.8308 34.8937 40.069 35.4569 40.069C36.9514 40.069 37.991 38.5745 37.991 36.4519C37.991 35.2173 37.6012 34.091 36.9081 33.4195C36.6048 33.1379 36.1283 32.7914 35.4785 32.7914H35.4569Z" fill="#1C1D1D"/>
<path d="M67.2966 39.2677C67.2966 39.2677 67.1666 39.2677 67.1016 39.2677C65.109 39.1594 63.1812 37.1017 63.2895 35.174C63.3329 34.3943 63.6361 33.7012 64.1776 33.2246C64.7191 32.7481 65.4555 32.4882 66.2786 32.5315C68.3146 32.6398 70.1123 34.5892 70.0474 36.6035C70.0257 37.405 69.7441 38.0981 69.2243 38.5746C68.7261 39.0294 68.0763 39.2677 67.3182 39.2677H67.2966ZM66.0836 33.9611C65.6938 33.9611 65.3689 34.0694 65.1306 34.286C64.8707 34.5026 64.7407 34.8491 64.7191 35.2606C64.6541 36.4086 65.9753 37.7948 67.1883 37.8381C67.5132 37.8381 67.968 37.8165 68.2713 37.5349C68.5528 37.275 68.6395 36.8635 68.6395 36.5602C68.6828 35.2823 67.4915 34.026 66.2136 33.9394C66.1703 33.9394 66.127 33.9394 66.1053 33.9394L66.0836 33.9611Z" fill="#1C1D1D"/>
</g>
<defs>
<clipPath id="clip0_1_6965">
<rect width="100" height="100" fill="white"/>
</clipPath>
</defs>
</svg>
