<svg width="100" height="100" viewBox="0 0 100 100" fill="none" xmlns="http://www.w3.org/2000/svg">
<path d="M78.0082 42.2631C77.6396 42.1812 77.2299 42.1197 76.8203 42.1197H31.024C28.0133 42.1197 25.576 44.557 25.576 47.5678V60.1433C25.576 60.7577 25.6784 61.3517 25.8832 61.9047C23.446 61.3722 21.6026 59.2012 21.6026 56.5795V44.004C21.6026 40.9932 24.0399 38.556 27.0507 38.556H72.8469C75.2433 38.556 77.2709 40.1125 78.0082 42.2426V42.2631Z" fill="#E2D6E2"/>
<path d="M72.8674 62.6216H68.423C68.1157 62.6216 67.87 62.3758 67.87 62.0686C67.87 61.7614 68.1157 61.5156 68.423 61.5156H72.8674C73.1746 61.5156 73.4204 61.7614 73.4204 62.0686C73.4204 62.3758 73.1746 62.6216 72.8674 62.6216ZM63.9785 62.6216H59.5341C59.2268 62.6216 58.9811 62.3758 58.9811 62.0686C58.9811 61.7614 59.2268 61.5156 59.5341 61.5156H63.9785C64.2857 61.5156 64.5315 61.7614 64.5315 62.0686C64.5315 62.3758 64.2857 62.6216 63.9785 62.6216ZM55.0896 62.6216H50.6452C50.3379 62.6216 50.0922 62.3758 50.0922 62.0686C50.0922 61.7614 50.3379 61.5156 50.6452 61.5156H55.0896C55.3968 61.5156 55.6426 61.7614 55.6426 62.0686C55.6426 62.3758 55.3968 62.6216 55.0896 62.6216ZM46.2007 62.6216H41.7563C41.449 62.6216 41.2033 62.3758 41.2033 62.0686C41.2033 61.7614 41.449 61.5156 41.7563 61.5156H46.2007C46.5079 61.5156 46.7537 61.7614 46.7537 62.0686C46.7537 62.3758 46.5079 62.6216 46.2007 62.6216ZM37.3118 62.6216H32.8674C32.5601 62.6216 32.3144 62.3758 32.3144 62.0686C32.3144 61.7614 32.5601 61.5156 32.8674 61.5156H37.3118C37.619 61.5156 37.8648 61.7614 37.8648 62.0686C37.8648 62.3758 37.619 62.6216 37.3118 62.6216ZM28.4229 62.6216H27.0711C25.9242 62.6216 24.7977 62.2939 23.8351 61.6794C23.5688 61.5156 23.5074 61.1674 23.6712 60.9216C23.8351 60.6554 24.1833 60.5939 24.429 60.7578C25.2073 61.2698 26.129 61.5156 27.0711 61.5156H28.4229C28.7301 61.5156 28.9759 61.7614 28.9759 62.0686C28.9759 62.3758 28.7301 62.6216 28.4229 62.6216ZM76.7793 60.9831C76.636 60.9831 76.4926 60.9216 76.3902 60.8192C76.1649 60.5939 76.1649 60.2457 76.3902 60.0409C77.2914 59.1193 77.7829 57.9109 77.7829 56.6206V56.3953C77.7829 56.088 78.0287 55.8423 78.3359 55.8423C78.6431 55.8423 78.8889 56.088 78.8889 56.3953V56.6206C78.8889 58.1976 78.2745 59.6928 77.1685 60.8192C77.0661 60.9216 76.9227 60.9831 76.7793 60.9831ZM21.7255 58.1976C21.4593 58.1976 21.234 58.0133 21.1725 57.747C21.1111 57.3784 21.0701 56.9892 21.0701 56.6206V53.2002C21.0701 52.8929 21.3159 52.6472 21.6231 52.6472C21.9303 52.6472 22.1761 52.8929 22.1761 53.2002V56.6206C22.1761 56.9278 22.1966 57.235 22.258 57.5422C22.3195 57.8494 22.1147 58.1362 21.8074 58.1976C21.7665 58.1976 21.746 58.1976 21.705 58.1976H21.7255ZM78.3359 52.5038C78.0287 52.5038 77.7829 52.258 77.7829 51.9508V47.5064C77.7829 47.1991 78.0287 46.9534 78.3359 46.9534C78.6431 46.9534 78.8889 47.1991 78.8889 47.5064V51.9508C78.8889 52.258 78.6431 52.5038 78.3359 52.5038ZM21.6231 49.3087C21.3159 49.3087 21.0701 49.0629 21.0701 48.7557V44.3113C21.0701 44.004 21.3159 43.7583 21.6231 43.7583C21.9303 43.7583 22.1761 44.004 22.1761 44.3113V48.7557C22.1761 49.0629 21.9303 49.3087 21.6231 49.3087ZM78.254 43.6149C77.9877 43.6149 77.7624 43.4306 77.701 43.1643C77.4552 41.8535 76.6769 40.6656 75.5505 39.9283C75.2842 39.7644 75.2228 39.4162 75.3866 39.15C75.5505 38.8837 75.8986 38.8223 76.1649 38.9861C77.5576 39.8873 78.5203 41.3415 78.807 42.9595C78.8684 43.2667 78.6636 43.5535 78.3564 43.6149C78.3154 43.6149 78.295 43.6149 78.254 43.6149ZM23.1592 40.809C23.0158 40.809 22.8725 40.7475 22.7701 40.6451C22.5448 40.4403 22.5448 40.0716 22.7701 39.8668C23.917 38.6789 25.4531 38.0235 27.1121 38.0235C27.4193 38.0235 27.6856 38.2693 27.6856 38.5765C27.6856 38.8837 27.4603 39.1295 27.1531 39.1295C25.7603 39.1295 24.511 39.662 23.5688 40.6246C23.4664 40.7475 23.3231 40.7885 23.1592 40.7885V40.809ZM71.5976 39.1295H67.1531C66.8459 39.1295 66.6001 38.8837 66.6001 38.5765C66.6001 38.2693 66.8459 38.0235 67.1531 38.0235H71.5976C71.9048 38.0235 72.1506 38.2693 72.1506 38.5765C72.1506 38.8837 71.9048 39.1295 71.5976 39.1295ZM62.7087 39.1295H58.2642C57.957 39.1295 57.7112 38.8837 57.7112 38.5765C57.7112 38.2693 57.957 38.0235 58.2642 38.0235H62.7087C63.0159 38.0235 63.2617 38.2693 63.2617 38.5765C63.2617 38.8837 63.0159 39.1295 62.7087 39.1295ZM53.8198 39.1295H49.3753C49.0681 39.1295 48.8223 38.8837 48.8223 38.5765C48.8223 38.2693 49.0681 38.0235 49.3753 38.0235H53.8198C54.127 38.0235 54.3728 38.2693 54.3728 38.5765C54.3728 38.8837 54.127 39.1295 53.8198 39.1295ZM44.9309 39.1295H40.4864C40.1792 39.1295 39.9334 38.8837 39.9334 38.5765C39.9334 38.2693 40.1792 38.0235 40.4864 38.0235H44.9309C45.2381 38.0235 45.4839 38.2693 45.4839 38.5765C45.4839 38.8837 45.2381 39.1295 44.9309 39.1295ZM36.042 39.1295H31.5975C31.2903 39.1295 31.0445 38.8837 31.0445 38.5765C31.0445 38.2693 31.2903 38.0235 31.5975 38.0235H36.042C36.3492 38.0235 36.595 38.2693 36.595 38.5765C36.595 38.8837 36.3492 39.1295 36.042 39.1295Z" fill="#1C1D1D"/>
<path d="M19.534 42.1198V41.8535C19.4726 36.8356 16.6461 23.3793 19.7798 15.1458C20.681 11.705 14.2908 8.87855 18.3461 4.51602L20.1075 1.4643C20.1075 1.4643 15.4377 -0.870571 14.0245 3.3281C12.6113 7.52678 15.2739 12.0532 15.2739 13.9374C15.2739 15.8217 12.4679 24.6901 13.8607 30.1587C14.6594 33.2513 15.0076 37.5319 15.151 40.6656L19.534 42.0993V42.1198Z" fill="#E2D6E2"/>
<path d="M20.8653 45.1305C19.6159 44.4956 18.2027 44.1269 16.7076 44.1269C11.6692 44.1269 7.59339 48.2027 7.59339 53.2411V65.407H3.4152V48.8786C3.4152 43.8197 7.49098 39.7439 12.5499 39.7439C15.0896 39.7439 17.3425 40.7475 18.981 42.427C19.7593 43.2052 20.4147 44.1269 20.8448 45.151L20.8653 45.1305Z" fill="#E2D6E2"/>
<path d="M96.38 45.1305C95.1306 44.4956 93.7174 44.1269 92.2223 44.1269C87.1838 44.1269 83.1081 48.2027 83.1081 53.2411V65.407H78.9299V48.8786C78.9299 43.8197 83.0057 39.7439 88.0645 39.7439C90.6042 39.7439 92.8572 40.7475 94.4957 42.427C95.274 43.2052 95.9294 44.1269 96.3595 45.151L96.38 45.1305Z" fill="#E2D6E2"/>
<path d="M84.337 98.894L82.2069 89.022L89.4163 89.0016L90.3585 84.3932L77.6396 84.4752L80.507 99.4266L84.337 98.894Z" fill="#E2D6E2"/>
<path d="M17.9979 98.8531L16.3799 88.9606L22.6881 89.0016L23.6508 84.3932L10.9114 84.4752L13.7788 99.4266L17.9979 98.8531Z" fill="#E2D6E2"/>
<path d="M96.6872 71.6129H8.71987V83.9017L3.57906 84.3318V66.0829H96.5643L96.6872 71.6129Z" fill="#E2D6E2"/>
<path d="M96.5643 84.8848H3.57905C3.27183 84.8848 3.02605 84.639 3.02605 84.3318V65.5504C3.02605 65.2431 3.27183 64.9974 3.57905 64.9974H96.5643C96.8715 64.9974 97.1173 65.2431 97.1173 65.5504V84.3318C97.1173 84.639 96.8715 84.8848 96.5643 84.8848ZM4.13205 83.7788H95.9908V66.1034H4.15253V83.7788H4.13205Z" fill="#1C1D1D"/>
<path d="M20.1894 100H13.7788C13.5125 100 13.2872 99.8157 13.2258 99.5494L10.3584 84.5775C10.3174 84.4137 10.3584 84.2498 10.4813 84.127C10.5837 84.0041 10.7475 83.9221 10.9114 83.9221L23.6303 83.8402C23.7941 83.8402 23.958 83.9221 24.0604 84.045C24.1628 84.1679 24.2038 84.3522 24.1628 84.5161L20.7015 99.5699C20.64 99.8157 20.4147 100 20.1689 100H20.1894ZM14.2293 98.894H19.7388L22.9339 84.9667L11.5873 85.0486L14.2293 98.9145V98.894Z" fill="#1C1D1D"/>
<path d="M86.3032 100H79.8925C79.6263 100 79.401 99.8157 79.3395 99.5494L76.4721 84.5775C76.4312 84.4137 76.4722 84.2498 76.595 84.127C76.6974 84.0041 76.8613 83.9221 77.0251 83.9221L89.7441 83.8402C89.9284 83.9017 90.0718 83.9221 90.1742 84.045C90.2766 84.1679 90.3175 84.3522 90.2766 84.5161L86.8152 99.5699C86.7538 99.8157 86.5285 100 86.2827 100H86.3032ZM80.3431 98.894H85.8526L89.0477 84.9667L77.701 85.0486L80.3431 98.9145V98.894Z" fill="#1C1D1D"/>
<path d="M21.6845 65.9395H3.41519C3.10797 65.9395 2.8622 65.6937 2.8622 65.3865V48.8581C2.8622 43.5125 7.20424 39.1704 12.5499 39.1704C17.8955 39.1704 22.2375 43.5125 22.2375 48.8581V65.3865C22.2375 65.6937 21.9918 65.9395 21.6845 65.9395ZM3.98867 64.8335H21.1316V48.8581C21.1316 44.1269 17.2811 40.2764 12.5499 40.2764C7.81868 40.2764 3.96819 44.1269 3.96819 48.8581V64.8335H3.98867Z" fill="#1C1D1D"/>
<path d="M96.5848 65.9395H78.3154C78.0082 65.9395 77.7625 65.6937 77.7625 65.3865V48.8581C77.7625 43.5125 82.1045 39.1704 87.4501 39.1704C92.7958 39.1704 97.1378 43.5125 97.1378 48.8581V65.3865C97.1378 65.6937 96.892 65.9395 96.5848 65.9395ZM78.8889 64.8335H96.0318V48.8581C96.0318 44.1269 92.1813 40.2764 87.4501 40.2764C82.7189 40.2764 78.8684 44.1269 78.8684 48.8581V64.8335H78.8889Z" fill="#1C1D1D"/>
<path d="M87.7164 7.01473C87.3272 6.40029 86.7333 5.86778 85.8321 5.49912C80.5069 3.24617 73.4204 8.30506 70.2253 7.87495C51.4234 3.88109 30.3072 8.14121 30.3072 8.14121C24.7363 8.18217 20.1894 2.03777 15.4582 6.4003C14.7414 7.07618 14.2703 7.77254 14.045 8.44843C13.2462 6.31837 13.0005 4.14735 15.192 2.14018C19.9027 -2.22235 24.47 3.92205 30.0409 3.88109C30.0409 3.88109 51.1572 -0.358546 69.9591 3.61483C73.1337 4.04494 80.2407 -1.03443 85.5658 1.239C88.1874 2.34499 88.3103 4.65938 87.7164 7.01473Z" fill="#E2D6E2"/>
<path d="M14.9872 40.5222C14.7004 40.5222 14.4546 40.2969 14.4342 40.0101C14.3318 39.0066 14.1884 37.8391 14.0245 36.5488C13.2258 30.0562 12.1198 21.1468 14.8643 14.9C15.1715 13.835 14.4751 12.3399 13.7378 10.7628C12.468 8.05926 10.8909 4.67984 14.1065 1.71004C17.2811 -1.21879 20.4557 0.214906 23.5074 1.58716C25.3507 2.42689 27.276 3.28711 29.2831 3.28711H29.3241C29.4265 3.24614 50.6656 -0.932049 69.3651 3.04133C70.3892 3.1847 72.1915 2.54978 74.0758 1.87389C77.4143 0.685977 81.572 -0.788679 85.0743 0.685977C89.4573 2.54978 87.614 7.36289 86.3851 10.558C85.955 11.664 85.5658 12.688 85.5044 13.3434C85.4634 13.9169 85.7092 14.9 86.0574 16.1289C87.1224 20.1023 89.1091 27.4756 86.0984 39.8873C86.0164 40.1945 85.7297 40.3788 85.4225 40.2969C85.1153 40.215 84.9514 39.9282 85.0128 39.621C87.9622 27.4756 86.0369 20.2661 84.9924 16.4156C84.6237 15.0229 84.337 13.9988 84.4189 13.241C84.4803 12.4423 84.89 11.3772 85.361 10.1688C86.8767 6.19546 87.7983 3.06181 84.6442 1.73053C81.5515 0.399238 77.6191 1.81245 74.465 2.93892C72.3554 3.69673 70.5325 4.33165 69.1808 4.14732C50.6656 0.214906 29.6518 4.35214 29.447 4.3931C29.406 4.3931 29.3855 4.3931 29.3446 4.3931C27.0097 4.3931 25.0025 3.47144 23.0568 2.59074C20.087 1.23897 17.5064 0.0715366 14.8643 2.50882C12.2631 4.92561 13.4715 7.52674 14.7619 10.2712C15.6016 12.0531 16.3799 13.7531 15.9293 15.2687C13.2872 21.2902 14.3522 30.0357 15.151 36.4054C15.3149 37.6958 15.4582 38.8837 15.5606 39.8873C15.5811 40.1945 15.3558 40.4607 15.0691 40.5017C15.0691 40.5017 15.0281 40.5017 15.0076 40.5017L14.9872 40.5222Z" fill="#1C1D1D"/>
<path d="M49.4368 35.197C49.1295 35.197 48.8838 34.9308 48.8838 34.644L49.191 8.98091C49.191 8.67369 49.4368 8.42792 49.744 8.42792C50.0512 8.42792 50.297 8.69417 50.297 8.98091L49.9898 34.644C49.9898 34.9512 49.744 35.197 49.4368 35.197Z" fill="#1C1D1D"/>
<path d="M49.6006 35.6066C49.4572 35.6066 49.3139 35.5452 49.191 35.4428L40.4455 26.3286C40.2407 26.1033 40.2407 25.7551 40.4455 25.5503C40.6708 25.3455 41.0189 25.3455 41.2238 25.5503L49.5597 34.2549L57.7932 25.4479C57.998 25.2226 58.3461 25.2021 58.5714 25.4274C58.7967 25.6322 58.8172 25.9804 58.5919 26.2057L49.9488 35.4428C49.8464 35.5452 49.703 35.6271 49.5392 35.6271L49.6006 35.6066Z" fill="#1C1D1D"/>
</svg>
