<?xml version="1.0" encoding="utf-8"?>
<!-- Generator: Adobe Illustrator 27.0.0, SVG Export Plug-In . SVG Version: 6.00 Build 0)  -->
<svg version="1.1" id="Layer_1" xmlns="http://www.w3.org/2000/svg" xmlns:xlink="http://www.w3.org/1999/xlink" x="0px" y="0px"
	 viewBox="0 0 100 100" style="enable-background:new 0 0 100 100;" xml:space="preserve">
<style type="text/css">
	.st0{fill:#E2D6E2;}
	.st1{fill:#1C1D1D;}
</style>
<path class="st0" d="M27.3,83.3c0,0-2.3,8.8-5.8,15.8c3.9,0.3,4.7,0.1,4.7,0.1s3.8-7,5.7-15.8C29.3,83.6,27.3,83.3,27.3,83.3
	L27.3,83.3z"/>
<path class="st0" d="M25.9,88.3c0,0,39.1-0.8,44.4-0.8s22.5,0.8,24.4,7.7c-0.1-3.4-4.5-10.8-21-12.1c-16.4-1.2-47.1,0.5-47.1,0.5
	L25.9,88.3L25.9,88.3z"/>
<path class="st1" d="M94.9,100H18.7c-0.4,0-0.8-0.3-0.8-0.8s0.3-0.8,0.8-0.8h75.5c0.2-1.2,0.5-4.2-1.8-7.2
	c-2.7-3.6-9.7-7.8-27.4-7.5c-8.6,0.2-37.4,0.5-37.4,0.5v-1.5c0,0,28.8-0.3,37.4-0.5c14.8-0.3,24.4,2.5,28.6,8.1
	c3.3,4.4,1.9,8.9,1.9,9.1C95.5,99.8,95.2,100,94.9,100L94.9,100z"/>
<path class="st0" d="M18.8,5.3c-0.3-0.1-0.5-0.1-0.8-0.2c-4.4-0.8-8.1,3.1-6.8,7c4.3,13.2,11.3,44.8-1.8,83.6
	C9,96.8,9,97.9,9.3,98.9c-3.2-1-5.2-4.2-4.2-7.4C17.4,52.5,9.6,21,5.1,8c-1.4-3.9,2.3-7.8,6.7-7.1C14,1.2,16.5,2.8,18.8,5.3
	L18.8,5.3z"/>
<path class="st1" d="M11.5,100c-2.4,0-4.7-1.1-6.1-3c-1.2-1.7-1.6-3.8-1-5.7C16.8,52,8.5,20.1,4.4,8.2c-0.7-2-0.3-4.1,1.1-5.8
	C7,0.6,9.4-0.3,11.9,0.1c4.3,0.7,8.9,5.1,11.3,10.9c20.2,50.3-1.1,88.2-1.3,88.6c-0.1,0.2-0.4,0.4-0.7,0.4H11.5L11.5,100z M5.8,7.7
	C10,19.7,18.4,52,5.9,91.8c-0.5,1.5-0.2,3.1,0.8,4.3c1.1,1.5,2.9,2.4,4.9,2.4h9.3c2.1-4.1,19.8-40,1-86.9c-2.6-6.2-7-9.5-10.1-10
	C9.8,1.3,7.9,2,6.7,3.4C5.7,4.7,5.4,6.2,5.8,7.7L5.8,7.7z"/>
<path class="st1" d="M91.5,58.1h-3c-0.4,0-0.8-0.3-0.8-0.8s0.3-0.8,0.8-0.8h3c0.4,0,0.8,0.3,0.8,0.8S92,58.1,91.5,58.1z"/>
<path class="st1" d="M83.3,58.1h-5.2c-0.4,0-0.8-0.3-0.8-0.8s0.3-0.8,0.8-0.8h5.2c0.4,0,0.8,0.3,0.8,0.8S83.7,58.1,83.3,58.1z
	 M72.9,58.1h-5.2c-0.4,0-0.8-0.3-0.8-0.8s0.3-0.8,0.8-0.8h5.2c0.4,0,0.8,0.3,0.8,0.8S73.3,58.1,72.9,58.1z M62.4,58.1h-5.2
	c-0.4,0-0.8-0.3-0.8-0.8s0.3-0.8,0.8-0.8h5.2c0.4,0,0.8,0.3,0.8,0.8S62.8,58.1,62.4,58.1z"/>
<path class="st1" d="M40.9,58.1h-3c-0.4,0-0.8-0.3-0.8-0.8s0.3-0.8,0.8-0.8h3c0.4,0,0.8,0.3,0.8,0.8S41.4,58.1,40.9,58.1z"/>
<path class="st1" d="M44.3,64.7c-0.2,0-0.4-0.1-0.5-0.2L36.5,58c-0.2-0.1-0.2-0.3-0.2-0.5c0-0.2,0.1-0.4,0.2-0.6l7-6.8
	c0.3-0.3,0.8-0.3,1.1,0s0.3,0.8,0,1.1l-6.4,6.2l6.7,6c0.3,0.3,0.3,0.8,0.1,1.1C44.7,64.6,44.5,64.7,44.3,64.7L44.3,64.7z"/>
<path class="st1" d="M86.2,64.7c-0.2,0-0.4-0.1-0.5-0.2c-0.3-0.3-0.3-0.8,0-1.1l6.4-6.2l-6.7-6c-0.3-0.3-0.3-0.8-0.1-1.1
	c0.3-0.3,0.8-0.3,1.1-0.1l7.3,6.5c0.2,0.1,0.2,0.3,0.2,0.5c0,0.2-0.1,0.4-0.2,0.6l-7,6.8C86.5,64.6,86.3,64.7,86.2,64.7L86.2,64.7z"
	/>
<path class="st1" d="M51.4,58.1h-5.2c-0.4,0-0.8-0.3-0.8-0.8s0.3-0.8,0.8-0.8h5.2c0.4,0,0.8,0.3,0.8,0.8S51.8,58.1,51.4,58.1z"/>
</svg>
